<svg height="512" viewBox="0 0 512 512" width="512" xmlns="http://www.w3.org/2000/svg"><g id="Outline"><path d="m304 104a48 48 0 1 0 -48 48 48.054 48.054 0 0 0 48-48zm-80 0a32 32 0 1 1 32 32 32.036 32.036 0 0 1 -32-32z"/><path d="m251.412 238.554a8 8 0 0 0 9.176 0 254.588 254.588 0 0 0 41.449-38.305c27.452-31.57 41.963-64.849 41.963-96.249a88 88 0 0 0 -176 0c0 31.4 14.511 64.679 41.963 96.249a254.588 254.588 0 0 0 41.449 38.305zm4.588-206.554a72.081 72.081 0 0 1 72 72c0 57.241-55.483 105.026-72 117.983-16.542-12.941-72-60.632-72-117.983a72.081 72.081 0 0 1 72-72z"/><path d="m152 418.091h16v16.74h-16z" transform="matrix(.294 -.956 .956 .294 -294.656 453.976)"/><path d="m184 427.937h16.001v16.74h-16.001z" transform="matrix(.294 -.956 .956 .294 -281.481 491.485)"/><path d="m216 437.784h16v16.74h-16z" transform="matrix(.294 -.956 .956 .294 -268.297 529.054)"/><path d="m466.353 200.354-120-36.923-4.706 15.293 95.153 29.276-180.8 55.63-180.8-55.63 95.15-29.276-4.706-15.293-120 36.923a8 8 0 0 0 -5.644 7.646v216a8 8 0 0 0 5.647 7.646l208 64a8 8 0 0 0 4.706 0l208-64a8 8 0 0 0 5.647-7.646v-216a8 8 0 0 0 -5.647-7.646zm-410.353 18.478 192 59.077v199.259l-192-59.076zm208 258.336v-199.259l192-59.077v199.26z"/><path d="m359.63 413.538h16.74v16h-16.74z" transform="matrix(.956 -.294 .294 .956 -107.687 126.852)"/><path d="m391.63 403.692h16.74v16.001h-16.74z" transform="matrix(.956 -.294 .294 .956 -103.393 135.856)"/><path d="m423.63 393.846h16.74v16h-16.74z" transform="matrix(.956 -.294 .294 .956 -99.067 144.801)"/><path d="m192 339.077a8 8 0 0 0 8-8v-40a8 8 0 0 0 -5.647-7.646l-80-24.616a8 8 0 0 0 -10.353 7.647v40a8 8 0 0 0 5.647 7.646l80 24.616a8.01 8.01 0 0 0 2.353.353zm-8-18.832-64-19.691v-23.26l64 19.691z"/><path d="m408 306.462v-40a8 8 0 0 0 -10.353-7.647l-80 24.616a8 8 0 0 0 -5.647 7.646v40a8 8 0 0 0 10.353 7.647l80-24.616a8 8 0 0 0 5.647-7.646zm-16-5.908-64 19.691v-23.26l64-19.691z"/></g></svg>